PathFileType	4	(X/Y/Z)	C:/Users/opensim2020/Desktop/walking_exp_matlab/subject06_walking19_straight_02.trc	
DataRate	CameraRate	NumFrames	NumMarkers	Units	OrigDataRate	OrigDataStartFrame	OrigNumFrames	
100.00	100.00	4	49	mm	100.00	2276	332	
Frame#	Time	LFHD			RFHD			LBHD			RBHD			C7			T10			CLAV			STRN			RBAK			LSHO			LUPA			LELB			LFRM			LWRA			LWRB			LFIN			RSHO			RUPA			RELB			RFRM			RWRA			RWRB			RFIN			LASI			RASI			LPSI			RPSI			LTHI			LKNE			LTIB			LANK			LHEE			LTOE			RTHI			RKNE			RTIB			RANK			RHEE			RTOE			*39			*40			*41			*42			*43			*44			*45			*46			*47			*48			
		X1	Y1	Z1	X2	Y2	Z2	X3	Y3	Z3	X4	Y4	Z4	X5	Y5	Z5	X6	Y6	Z6	X7	Y7	Z7	X8	Y8	Z8	X9	Y9	Z9	X10	Y10	Z10	X11	Y11	Z11	X12	Y12	Z12	X13	Y13	Z13	X14	Y14	Z14	X15	Y15	Z15	X16	Y16	Z16	X17	Y17	Z17	X18	Y18	Z18	X19	Y19	Z19	X20	Y20	Z20	X21	Y21	Z21	X22	Y22	Z22	X23	Y23	Z23	X24	Y24	Z24	X25	Y25	Z25	X26	Y26	Z26	X27	Y27	Z27	X28	Y28	Z28	X29	Y29	Z29	X30	Y30	Z30	X31	Y31	Z31	X32	Y32	Z32	X33	Y33	Z33	X34	Y34	Z34	X35	Y35	Z35	X36	Y36	Z36	X37	Y37	Z37	X38	Y38	Z38	X39	Y39	Z39	X40	Y40	Z40	X41	Y41	Z41	X42	Y42	Z42	X43	Y43	Z43	X44	Y44	Z44	X45	Y45	Z45	X46	Y46	Z46	X47	Y47	Z47	X48	Y48	Z48	X49	Y49	Z49	

84	0.830	-1001.17670	761.05597	1668.63391	-1132.00818	742.84064	1660.56677	-1019.15186	887.29388	1602.14404	-1147.48999	867.90558	1599.30786	-1069.31042	871.82715	1453.60913	-1078.43384	905.91394	1125.84448	-1064.51440	762.46393	1376.70203	-1058.72107	725.44696	1199.24719	-1152.79321	941.34485	1284.45166	-904.44312	821.95532	1407.46069	-835.85944	839.57098	1204.11646	-825.51630	850.15070	1092.13599	-796.37097	830.43683	944.40985	-823.17883	761.30072	830.32361	-799.02881	828.48718	825.06952	-787.41681	786.07483	745.16888	-1227.51221	796.09650	1406.53882	-1314.90161	818.35333	1204.54272	-1322.12817	802.59027	1082.88977	-1333.57629	780.53986	964.05383	-1290.17261	721.07050	827.98566	-1338.15344	767.96844	826.75995	-1333.10571	728.32819	752.17041	-959.21124	735.70441	965.50140	-1180.37939	729.16870	964.56177	-991.66779	893.41754	993.75287	-1160.48926	881.43286	996.23248	-893.42413	756.94025	654.92352	-917.50977	716.14166	497.14838	-918.17401	796.07062	257.43900	-950.49390	823.52460	85.23866	-1002.66595	855.52515	69.22834	-922.48767	688.91394	46.16256	-1219.60974	802.70618	630.22223	-1193.39014	811.90350	505.14252	-1183.86157	890.77612	249.53087	-1134.70801	935.82861	68.59241	-1094.00305	981.95044	46.57862	-1120.77417	784.72156	32.14621	-1073.08179	855.79651	1698.88086																											 
85	0.840	-1000.43024	755.83948	1668.11731	-1131.22266	737.34357	1660.20923	-1018.80481	882.22882	1601.89673	-1147.14294	862.57336	1599.25854	-1069.34253	866.97021	1453.34875	-1078.68652	901.35260	1125.55298	-1064.30688	757.68329	1376.32690	-1058.78552	720.86749	1198.89319	-1153.37244	936.39508	1284.46277	-904.42957	817.69519	1407.02991	-835.66266	836.77039	1204.10974	-825.13629	848.25958	1092.22034	-796.47430	830.15076	944.20355	-824.30359	763.20557	829.08429	-799.23987	830.18146	824.80328	-788.39374	788.81696	744.28931	-1227.29395	790.68243	1406.52393	-1314.86682	811.51575	1204.45093	-1322.23364	794.94641	1082.94116	-1333.77161	772.19232	964.24371	-1290.37720	712.35468	828.34167	-1338.63257	758.88635	827.03723	-1333.63184	718.84247	752.68665	-959.46655	730.05499	965.78210	-1180.77466	724.92444	964.19958	-991.77551	888.49878	993.44635	-1160.58923	877.04083	995.77441	-892.55249	749.05115	656.05054	-916.56580	707.15045	498.23935	-917.03619	779.23700	256.02698	-948.94702	801.89362	83.10764	-1000.83356	833.96924	66.48962	-922.48328	665.93506	47.07627	-1219.55737	799.53674	629.84210	-1193.51941	809.39758	504.77399	-1183.91003	889.85059	249.53181	-1134.82190	935.71063	68.83548	-1093.91003	981.86017	46.94096	-1120.82446	784.67633	32.10716	-1072.49182	850.36652	1698.67322																											 
86	0.850	-999.60986	750.62549	1667.53210	-1130.38379	731.90277	1659.82349	-1018.40942	877.16132	1601.63684	-1146.90833	857.37579	1599.14880	-1069.31140	862.09930	1452.99841	-1078.83508	897.01654	1125.27490	-1063.98401	752.96893	1375.87805	-1058.82764	716.22687	1198.45898	-1153.90332	931.41376	1284.42468	-904.35730	813.37457	1406.59082	-835.30304	833.80243	1204.10217	-824.50659	846.19806	1092.41724	-796.58984	829.24457	944.14526	-826.00385	764.68097	828.13788	-799.47998	831.52448	824.61890	-789.59088	791.02539	743.48883	-1226.99890	785.30646	1406.42773	-1314.87781	804.87018	1204.45410	-1322.29395	787.36627	1083.01917	-1333.98157	763.91626	964.49835	-1290.56091	703.51862	828.77802	-1339.08362	749.73969	827.40112	-1334.03625	709.37933	753.20538	-959.98444	725.23376	965.71027	-1181.16125	720.65826	963.86517	-991.78558	883.59619	993.15222	-1160.62561	872.65271	995.31158	-891.91095	742.45026	656.64282	-915.68842	698.41187	499.32407	-915.20599	763.27881	254.90584	-947.34363	780.35754	81.31715	-998.65002	812.71545	64.27338	-922.84985	643.12268	47.74397	-1219.32959	796.44257	629.44812	-1193.69434	806.97302	504.38864	-1184.01245	888.93579	249.52103	-1134.80432	935.62506	69.12673	-1093.91663	981.75677	47.43665	-1120.89307	784.62537	32.00344	-1071.85852	844.99371	1698.44983																											 
87	0.860	-998.76422	745.51984	1666.89978	-1129.52356	726.43457	1659.38684	-1017.95313	872.02985	1601.32092	-1146.41931	851.96411	1598.99585	-1069.20618	857.23419	1452.67029	-1078.96069	892.49756	1124.82263	-1063.63989	748.20825	1375.40198	-1058.87109	711.63568	1197.99048	-1154.36377	926.40717	1284.31580	-904.24988	809.03162	1406.10156	-834.79559	830.81909	1204.11121	-823.74500	844.15808	1092.60303	-796.89764	828.28363	943.85583	-827.52039	766.60236	827.17206	-799.62732	832.46747	824.47296	-790.93402	792.95728	742.78137	-1226.68469	779.94397	1406.35583	-1314.77844	798.13904	1204.39453	-1322.35193	779.81409	1083.09387	-1334.19592	755.60046	964.75458	-1290.76489	694.57904	829.28552	-1339.48560	740.60132	827.76154	-1334.42261	699.84796	753.80084	-960.47064	720.44373	965.48926	-1181.53564	716.48853	963.51312	-991.66986	878.73572	992.81482	-1160.51050	868.31085	994.85187	-891.33411	735.94830	657.21674	-914.88580	689.83270	500.21735	-914.14624	746.89923	253.81044	-945.67450	758.97949	79.82962	-998.63489	789.11792	60.57945	-922.83569	620.37262	48.50106	-1219.37427	793.18097	629.11377	-1193.90088	804.54810	504.03546	-1183.95691	888.10504	249.59885	-1134.90466	935.44006	69.32869	-1093.91248	981.66412	47.85514	-1120.93970	784.63489	31.86699	-1071.21777	839.56982	1698.11230																											 
